<svg xmlns="http://www.w3.org/2000/svg" width="100" height="100" viewBox="0 0 100 100"><title>about</title><path d="M49.88,56.34h0A27.15,27.15,0,0,0,69,48.25a26.13,26.13,0,0,0,7.73-18.71C76.59,15.19,64.32,3.08,49.94,3.08h0A27,27,0,0,0,23.26,29.69,27.05,27.05,0,0,0,49.88,56.34Zm0-48.26h0a22.11,22.11,0,0,1,21.8,21.51,21.11,21.11,0,0,1-6.29,15.14,22.05,22.05,0,0,1-15.56,6.61h0A22.05,22.05,0,0,1,28.26,29.7,22,22,0,0,1,49.93,8.08Z" fill="#fff"/><path d="M93.43,87.75C83.24,72,69,62.64,53.3,61.42,35.34,60,18.36,69.55,6.67,87.57c-2.26,3.49-2.1,6.31.54,9.46l.74.89,83.93.15.75-.89C94.57,94.9,96.18,92,93.43,87.75Zm-3.92,5.32-79.14-.15c-.5-.83-.32-1.38.5-2.63,10.65-16.43,26-25.14,42-23.89,14.1,1.1,27,9.65,36.32,24.06C90,91.65,90.13,92.14,89.51,93.07Z" fill="#fff"/></svg>