<svg xmlns="http://www.w3.org/2000/svg" width="100" height="100" viewBox="0 0 100 100"><title>website-icons</title><path d="M97.11,2.19a2.56,2.56,0,0,0-2.75-.12L3.08,54.71a2.55,2.55,0,0,0,.42,4.62L30.36,69l9.85,27.57a2.56,2.56,0,0,0,2.41,1.7h.26a2.56,2.56,0,0,0,2.27-2.19v0L60.39,77.81l20.27,8.36a2.61,2.61,0,0,0,2.21-.12,2.6,2.6,0,0,0,1.29-1.8l14-79.52A2.57,2.57,0,0,0,97.11,2.19ZM35.37,67.81l25-21.22L44.32,67.69a2.56,2.56,0,0,0-.48,1.2h0L41.54,85.07Zm10.94,20.1,2.12-15,7.76,3.2Zm33.36-7.69L50.41,68.15,78.71,31a2.56,2.56,0,0,0-3.7-3.5L31.83,64.09l-21.41-7.7L92.16,9.25Z" fill="#fff"/></svg>