<svg xmlns="http://www.w3.org/2000/svg" width="100" height="100" viewBox="0 0 100 100"><title>website-icons</title><path d="M96.75,65c0-3.86-.2-7.61-.37-10.77a33.69,33.69,0,0,0-1.81-9c-2.28-6.65-6.72-11-13.17-12.86a32,32,0,0,0-11.09-1.13A22.74,22.74,0,0,0,58,35.66c-.26.19-.51.39-.75.59V36a3.4,3.4,0,0,0-.91-2.55,3.6,3.6,0,0,0-2.52-.94c-5.1,0-10.33,0-16,0h0a3.39,3.39,0,0,0-2.5.93A3.43,3.43,0,0,0,34.39,36q0,23.4,0,46.79v10.4c0,2.29,1.17,3.44,3.48,3.44H54.45C56.89,96.63,58,95.49,58,93V65.72a29.3,29.3,0,0,1,.63-7.43c.71-2.78,1.94-4.38,4-5.19a10.2,10.2,0,0,1,4.48-.54,5,5,0,0,1,4.81,3.13,14.93,14.93,0,0,1,1.14,6.22c0,7.62,0,15.23,0,22.85V93c0,2.47,1.14,3.61,3.58,3.61H93.18c2.45,0,3.59-1.14,3.59-3.61V85C96.78,78.33,96.79,71.64,96.75,65Zm-5.1,20v6.51H78.23V84.77c0-7.63,0-15.26,0-22.89a19.7,19.7,0,0,0-1.6-8.3,10.12,10.12,0,0,0-9.18-6.14,15.27,15.27,0,0,0-6.67.91c-3.6,1.43-5.91,4.27-7,8.67a34.15,34.15,0,0,0-.79,8.7V91.51H39.53V82.79q0-22.54,0-45.12c4.4,0,8.55,0,12.61,0,0,1.15,0,2.3,0,3.44V43a2.56,2.56,0,0,0,4.72,1.38,17.26,17.26,0,0,1,13.81-8.11,26.35,26.35,0,0,1,9.3.94c4.84,1.41,8,4.55,9.77,9.6a28.4,28.4,0,0,1,1.53,7.64c.17,3.1.35,6.77.37,10.51C91.67,71.66,91.66,78.33,91.65,85Z" fill="#fff"/><path d="M24.83,32.56H8.13c-2.29,0-3.46,1.16-3.46,3.45v10.6q0,23.3,0,46.6a3.42,3.42,0,0,0,.93,2.52A3.37,3.37,0,0,0,8,96.65H8.1q6.36,0,12.73,0h3.88c2.47,0,3.63-1.15,3.63-3.64V36.06C28.34,33.71,27.19,32.56,24.83,32.56Zm-1.61,59H9.78q0-22.45,0-44.91V37.68H23.22Z" fill="#fff"/><path d="M16.48,3.35h0A13.13,13.13,0,0,0,3.22,16.65a13.18,13.18,0,0,0,13.15,13.2h.06A13.3,13.3,0,0,0,29.74,16.64a13.44,13.44,0,0,0-3.88-9.46A13.15,13.15,0,0,0,16.48,3.35Zm-.06,21.38h-.06a8.06,8.06,0,0,1-8-8.09,8,8,0,0,1,8.13-8.17h0a7.94,7.94,0,0,1,5.76,2.33,8.22,8.22,0,0,1,2.39,5.82A8.08,8.08,0,0,1,16.42,24.73Z" fill="#fff"/></svg>