<svg xmlns="http://www.w3.org/2000/svg" width="100" height="100" viewBox="0 0 100 100"><title>website-icons</title><path d="M87.86,24.78a2.66,2.66,0,0,0-.18-.89,1.17,1.17,0,0,0-.05-.11,3,3,0,0,0-.16-.31l-.07-.1a2.54,2.54,0,0,0-.29-.36L66.36,2.27A1.64,1.64,0,0,0,66,2a.41.41,0,0,0-.11-.07,2.69,2.69,0,0,0-.29-.16l-.13-.05a1.87,1.87,0,0,0-.4-.13h0l-.42,0H14.7a2.56,2.56,0,0,0-2.56,2.56V95.92a2.56,2.56,0,0,0,2.56,2.56H85.3a2.56,2.56,0,0,0,2.56-2.56V24.78ZM67.11,10.26l12,12h-12Zm15.63,83.1H17.26V6.64H62V24.82a2.56,2.56,0,0,0,2.56,2.56H82.74Z" fill="#fff"/><path d="M22.6,50c0,1.38.35,2.49,1.72,2.49H75.69c1.38,0,1.73-1.11,1.73-2.49s-.35-2.49-1.73-2.49H24.32C23,47.51,22.6,48.62,22.6,50Z" fill="#fff"/><path d="M75.69,58.38H24.32c-1.37,0-1.72,1.12-1.72,2.49s.35,2.49,1.72,2.49H75.69c1.38,0,1.73-1.11,1.73-2.49S77.07,58.38,75.69,58.38Z" fill="#fff"/><path d="M75.69,69.25H24.32c-1.37,0-1.72,1.12-1.72,2.5s.35,2.49,1.72,2.49H75.69c1.38,0,1.73-1.12,1.73-2.49S77.07,69.25,75.69,69.25Z" fill="#fff"/><path d="M75.69,80.13H24.32c-1.37,0-1.72,1.11-1.72,2.49s.35,2.49,1.72,2.49H75.69c1.38,0,1.73-1.12,1.73-2.49S77.07,80.13,75.69,80.13Z" fill="#fff"/><path d="M39.32,27a7.34,7.34,0,0,0,7.3-7.28,7.28,7.28,0,0,0-14.55,0A7.37,7.37,0,0,0,39.32,27Z" fill="#fff"/><path d="M51.57,39.52a1.36,1.36,0,0,0,.18-1.93c-3-4.69-7.21-7.23-11.47-7.56-4.84-.38-9.79,2.09-13.3,7.5a1.39,1.39,0,0,0,.1,1.95Z" fill="#fff"/></svg>