<svg xmlns="http://www.w3.org/2000/svg" height="27" viewBox="0 0 150.27 47.8"><path d="M19.08,29.17c0-7.4,4.68-12.43,11.61-12.43,4,0,7.24,1.87,7.24,5.5,0,3.11-2,6.58-13.9,7a5.09,5.09,0,0,0,0,.7c0,2.38,1.05,4,4.21,4,2.45,0,3.81-.89,5.92-3.7l3.11,2c-2.14,3.23-4.75,5.57-9.62,5.57C21.92,37.78,19.08,34.66,19.08,29.17Zm5.42-3.43-.12.59c8-.39,8.76-2.22,8.76-3.7s-.85-2.3-2.92-2.3C27.26,20.33,25.27,21.93,24.5,25.74Z"/><path d="M40,37.31l3.35-20.1h4l-.58,3.39H47c.94-2.26,2.3-3.86,4.44-3.86s3.28,1.45,3,3.94h.2c1-2.3,2.41-3.94,4.83-3.94,2.26,0,3.42,1.33,3.42,3.78a19.73,19.73,0,0,1-.27,3L60.4,37.31h-4l2.22-13.4a9.09,9.09,0,0,0,.2-1.79c0-1.17-.43-1.71-1.29-1.71a2.41,2.41,0,0,0-2.06,1.36,8.12,8.12,0,0,0-1.09,2.84l-2.11,12.7h-4l2.22-13.4a9.09,9.09,0,0,0,.2-1.79c0-1.17-.43-1.71-1.29-1.71a2.41,2.41,0,0,0-2.06,1.36,8.12,8.12,0,0,0-1.09,2.84L44,37.31Z"/><path d="M78.05,37.31l.78-4.75h-.16c-1.52,3.08-3.39,5.22-6.85,5.22-4.17,0-6-3-6-7.79,0-7.21,3.31-13.25,9.35-13.25,3.07,0,4.75,1.48,5.41,4.13h.2l.62-3.66h4.91L83,37.31ZM77.7,31.9a8.76,8.76,0,0,0,2-4l.58-3.66c.39-2.23-.89-3.55-3.5-3.55-3.16,0-4.84,2-5.34,5.18L71,28.39a10.5,10.5,0,0,0-.16,1.72c0,2.22.9,3.77,3.12,3.77A4.85,4.85,0,0,0,77.7,31.9Z"/><path d="M93.81,33.69A13.81,13.81,0,0,1,94.17,31l1.9-9.93H89.61l.66-3.9h11.41L98.53,33.65l.74.23L105.39,28l2.72,2.46-2.72,2.88c-2.93,3.12-4.88,4.44-7.29,4.44C95.3,37.78,93.81,36.14,93.81,33.69Zm3.32-21.81a9.42,9.42,0,0,1,.15-1.37C97.55,9,98.49,8.1,100.63,8.1s2.92.93,2.92,2.14a9.46,9.46,0,0,1-.15,1.36c-.27,1.52-1.21,2.42-3.35,2.42S97.13,13.08,97.13,11.88Z"/><path d="M113.46,33.65a12.42,12.42,0,0,1,.31-2.53l3.51-18.74H111l.66-3.89h11.26l-4.75,25.16.7.23L125.07,28l2.73,2.46-2.88,3c-3,3.11-4.91,4.36-7.25,4.36C114.79,37.78,113.46,36.14,113.46,33.65Z"/></svg>