<svg xmlns="http://www.w3.org/2000/svg" width="152.57" height="47.8" viewBox="0 0 152.57 47.8"><title>website-icons</title><path d="M31.76,37.31l.78-4.75h-.15c-1.52,3.08-3.39,5.22-6.86,5.22-4.17,0-6-3-6-7.79,0-7.21,3.31-13.25,9.35-13.25,3.08,0,4.75,1.48,5.41,4.13h.2l.62-3.66H40l-3.35,20.1Zm-.35-5.41a8.76,8.76,0,0,0,1.95-4l.58-3.66c.39-2.23-.89-3.55-3.5-3.55-3.16,0-4.83,2-5.34,5.18l-.43,2.57a10.59,10.59,0,0,0-.15,1.72c0,2.22.89,3.77,3.11,3.77A4.85,4.85,0,0,0,31.41,31.9Z"/><path d="M47.09,8.49H52L49.74,22h.19c1.52-3.07,3.39-5.22,6.86-5.22,4.17,0,6,3,6,7.8,0,7.2-3.31,13.24-9.35,13.24-3.08,0-4.75-1.48-5.41-4.13h-.24l-.58,3.66H42.3ZM57.22,28.7l.43-2.57a10.46,10.46,0,0,0,.15-1.71c0-2.22-.89-3.78-3.11-3.78a4.84,4.84,0,0,0-3.78,2A8.71,8.71,0,0,0,49,26.68l-.58,3.66c-.39,2.22.89,3.54,3.5,3.54C55,33.88,56.71,31.86,57.22,28.7Z"/><path d="M66.24,29.17c0-7.67,4.64-12.43,11.15-12.43,5.33,0,8.41,3.39,8.41,8.61,0,7.68-4.64,12.43-11.14,12.43C69.32,37.78,66.24,34.39,66.24,29.17Zm14-.19.47-2.77a11.05,11.05,0,0,0,.19-1.75c0-2.65-1.48-3.94-3.85-3.94-2.89,0-4.68,1.83-5.22,5l-.47,2.76a10.3,10.3,0,0,0-.2,1.76C71.15,32.72,72.63,34,75,34,77.89,34,79.68,32.17,80.23,29Z"/><path d="M101.87,32.56h-.19c-1.48,3.19-3.35,5.22-6.59,5.22-3.74,0-5.45-2.53-5.45-5.8A22.23,22.23,0,0,1,90,28.24l1.83-11h4.91L94.86,28.7a14.92,14.92,0,0,0-.27,2.42,2.5,2.5,0,0,0,2.61,2.8A4.36,4.36,0,0,0,100.7,32a9.78,9.78,0,0,0,2-4.17l1.75-10.6h4.91L106,37.31h-4.91Z"/><path d="M116,33.42a15.26,15.26,0,0,1,.27-2.22L118,21.11h-5.34l.66-3.9h3.47A2.21,2.21,0,0,0,119.35,15l.82-4.91h4.56l-1.17,7.09h8l-.66,3.9h-8l-2,12.31.78.31,6.86-5.1,2.41,2.84-3,2.34c-3.43,2.72-5.18,4-7.6,4C117.44,37.78,116,36.07,116,33.42Z"/></svg>