<svg xmlns="http://www.w3.org/2000/svg" width="210.48" height="47.8" viewBox="0 0 210.48 47.8"><title>website-icons</title><path d="M21.24,33.65a11.88,11.88,0,0,1,.32-2.53l3.5-18.74H18.79l.66-3.89H30.71L26,33.65l.7.23L32.85,28l2.73,2.46-2.88,3c-3,3.11-4.91,4.36-7.25,4.36C22.57,37.78,21.24,36.14,21.24,33.65Z"/><path d="M41.8,33.69A14.47,14.47,0,0,1,42.15,31l1.91-9.93H37.6l.66-3.9H49.67L46.52,33.65l.74.23L53.37,28l2.73,2.46-2.73,2.88c-2.92,3.12-4.87,4.44-7.28,4.44C43.28,37.78,41.8,36.14,41.8,33.69Zm3.32-21.81a8.15,8.15,0,0,1,.15-1.37C45.54,9,46.48,8.1,48.62,8.1s2.92.93,2.92,2.14a9.46,9.46,0,0,1-.15,1.36C51.11,13.12,50.18,14,48,14S45.12,13.08,45.12,11.88Z"/><path d="M58.85,37.31l3.35-20.1h4.91L66.33,22h.2c1.48-3.19,3.35-5.22,6.58-5.22,3.74,0,5.46,2.54,5.46,5.81a22.43,22.43,0,0,1-.39,3.74l-1.83,11H71.44l1.91-11.49a16.13,16.13,0,0,0,.27-2.41A2.5,2.5,0,0,0,71,20.6a4.37,4.37,0,0,0-3.51,1.95,9.91,9.91,0,0,0-2,4.17L63.76,37.31Z"/><path d="M86.65,8.49h4.91L89.3,22h.24c1.36-3,3.5-5.22,6.89-5.22s5.26,2.07,5.26,4.83c0,3.32-2.11,5.85-7.29,7.33l2,4.79.55.08,3.77-3.59,2.42,2.42-2.22,2.34c-1.79,1.87-3.35,2.84-5.26,2.84-2.1,0-3.23-1.25-4.13-3.51l-2.3-5.8c5.18-1.44,7.52-3,7.52-5.53,0-1.44-1-2.42-2.8-2.42a4.28,4.28,0,0,0-3.51,2,8.91,8.91,0,0,0-1.91,4.25L86.77,37.31H81.86Z"/><path d="M106.14,29.17c0-7.4,4.68-12.43,11.61-12.43,4,0,7.24,1.87,7.24,5.5,0,3.11-2,6.58-13.9,7a5.09,5.09,0,0,0,0,.7c0,2.38,1,4,4.21,4,2.45,0,3.81-.89,5.92-3.7l3.11,2c-2.14,3.23-4.75,5.57-9.62,5.57C109,37.78,106.14,34.66,106.14,29.17Zm5.42-3.43-.12.59c8-.39,8.76-2.22,8.76-3.7s-.85-2.3-2.92-2.3C114.32,20.33,112.33,21.93,111.56,25.74Z"/><path d="M141.27,32.56h-.16c-1.52,3.08-3.38,5.22-6.85,5.22-4.17,0-6-3-6-7.79,0-7.21,3.31-13.25,9.35-13.25,3.08,0,4.75,1.48,5.41,4.13h.2l2.06-12.38h4.91L145.4,37.31h-4.91Zm-1.13-.66a8.41,8.41,0,0,0,1.91-4l.62-3.73c.39-2.23-.89-3.55-3.5-3.55-3.16,0-4.83,2-5.34,5.18l-.43,2.57a10.5,10.5,0,0,0-.16,1.72c0,2.22.9,3.77,3.12,3.77A4.85,4.85,0,0,0,140.14,31.9Z"/><path d="M156.26,33.69a13.63,13.63,0,0,1,.35-2.65l1.91-9.93h-6.47l.66-3.9h11.41L161,33.65l.74.23L167.83,28l2.72,2.46-2.72,2.88c-2.93,3.12-4.87,4.44-7.29,4.44C157.74,37.78,156.26,36.14,156.26,33.69Zm3.31-21.81a9.42,9.42,0,0,1,.15-1.37C160,9,160.93,8.1,163.07,8.1S166,9,166,10.24a8.16,8.16,0,0,1-.15,1.36c-.27,1.52-1.21,2.42-3.35,2.42S159.57,13.08,159.57,11.88Z"/><path d="M173.31,37.31l3.35-20.1h4.9L180.79,22H181c1.48-3.19,3.35-5.22,6.58-5.22,3.74,0,5.46,2.54,5.46,5.81a22.43,22.43,0,0,1-.39,3.74l-1.83,11h-4.91l1.91-11.49a16.13,16.13,0,0,0,.27-2.41,2.5,2.5,0,0,0-2.61-2.81A4.37,4.37,0,0,0,182,22.55a9.91,9.91,0,0,0-2,4.17l-1.76,10.59Z"/></svg>