<svg xmlns="http://www.w3.org/2000/svg" height="27" viewBox="0 0 174.19 47.8"><path d="M23.06,37.31l2.68-16.2h-4.9l.66-3.9h9.82l-1,5.88h.24c1.59-3.66,3.85-5.88,7.79-5.88h1.83l-.82,4.91H35.79A5.07,5.07,0,0,0,31.35,24a8.78,8.78,0,0,0-1.79,3.74L28,37.31Z"/><path d="M41.85,29.17c0-7.4,4.68-12.43,11.61-12.43,4,0,7.25,1.87,7.25,5.5,0,3.11-2,6.58-13.91,7a5.09,5.09,0,0,0,0,.7c0,2.38,1.05,4,4.21,4,2.45,0,3.81-.89,5.92-3.7l3.11,2c-2.14,3.23-4.75,5.57-9.62,5.57C44.7,37.78,41.85,34.66,41.85,29.17Zm5.42-3.43-.12.59c8-.39,8.76-2.22,8.76-3.7s-.85-2.3-2.92-2.3C50,20.33,48.05,21.93,47.27,25.74Z"/><path d="M63.27,34.35l2.92-2.72a7.11,7.11,0,0,0,5.92,2.57c2.69,0,4.37-1,4.37-2.73,0-1.32-1-1.71-2.3-2L71.3,28.9c-3-.62-5.57-1.79-5.57-5.42,0-4.44,3.85-6.74,9-6.74,3.54,0,6.42,1.13,7.83,2.93l-2.81,2.8a6.43,6.43,0,0,0-5.22-2.14c-2.49,0-3.93.93-3.93,2.57,0,1.36.93,1.71,2.3,2l3,.62c3.11.66,5.53,1.79,5.53,5.3,0,4.36-3.78,7-9.59,7C67.79,37.78,64.75,36.53,63.27,34.35Z"/><path d="M98.35,32.56h-.19c-1.48,3.19-3.35,5.22-6.59,5.22-3.74,0-5.45-2.53-5.45-5.8a22.23,22.23,0,0,1,.39-3.74l1.83-11h4.91L91.34,28.7a14.92,14.92,0,0,0-.27,2.42,2.5,2.5,0,0,0,2.61,2.8A4.36,4.36,0,0,0,97.18,32a9.78,9.78,0,0,0,2-4.17l1.75-10.6h4.91l-3.35,20.1H97.57Z"/><path d="M107.53,37.31l3.35-20.1h4.05l-.58,3.39h.23c.94-2.26,2.3-3.86,4.44-3.86s3.28,1.45,3,3.94h.2c1-2.3,2.41-3.94,4.83-3.94,2.26,0,3.43,1.33,3.43,3.78a19.79,19.79,0,0,1-.28,3L128,37.31h-4.06l2.22-13.4a9.09,9.09,0,0,0,.2-1.79c0-1.17-.43-1.71-1.29-1.71A2.41,2.41,0,0,0,123,21.77a8.12,8.12,0,0,0-1.09,2.84l-2.11,12.7h-4.05l2.22-13.4a9.09,9.09,0,0,0,.2-1.79c0-1.17-.43-1.71-1.29-1.71a2.41,2.41,0,0,0-2.06,1.36,8.12,8.12,0,0,0-1.09,2.84l-2.11,12.7Z"/><path d="M133.6,29.17c0-7.4,4.67-12.43,11.61-12.43,4,0,7.24,1.87,7.24,5.5,0,3.11-2,6.58-13.91,7a6.77,6.77,0,0,0,0,.7c0,2.38,1.05,4,4.2,4,2.46,0,3.82-.89,5.92-3.7l3.12,2c-2.14,3.23-4.75,5.57-9.62,5.57C136.44,37.78,133.6,34.66,133.6,29.17ZM139,25.74l-.12.59c8-.39,8.77-2.22,8.77-3.7s-.86-2.3-2.92-2.3C141.78,20.33,139.79,21.93,139,25.74Z"/></svg>